<mxfile host="app.diagrams.net" agent="Mozilla/5.0 (Windows NT 10.0; Win64; x64) AppleWebKit/537.36 (KHTML, like Gecko) Chrome/133.0.0.0 Safari/537.36 OPR/118.0.0.0" version="27.0.5">
  <diagram name="Strona-1" id="CH4Bqw-kkCZQxjJeoXJA">
    <mxGraphModel dx="2456" dy="889" grid="1" gridSize="10" guides="1" tooltips="1" connect="1" arrows="1" fold="1" page="1" pageScale="1" pageWidth="827" pageHeight="1169" math="0" shadow="0">
      <root>
        <mxCell id="0" />
        <mxCell id="1" parent="0" />
        <mxCell id="ULba8d2TCE8me48ePCOG-23" value="&lt;div&gt;Backend&lt;/div&gt;" style="swimlane;whiteSpace=wrap;html=1;" vertex="1" parent="1">
          <mxGeometry x="-180" y="508" width="400" height="250" as="geometry">
            <mxRectangle x="-755" y="500" width="90" height="30" as="alternateBounds" />
          </mxGeometry>
        </mxCell>
        <mxCell id="ULba8d2TCE8me48ePCOG-38" value="" style="whiteSpace=wrap;html=1;aspect=fixed;" vertex="1" parent="ULba8d2TCE8me48ePCOG-23">
          <mxGeometry x="200" y="110" width="80" height="80" as="geometry" />
        </mxCell>
        <mxCell id="ULba8d2TCE8me48ePCOG-47" value="Auth" style="whiteSpace=wrap;html=1;aspect=fixed;" vertex="1" parent="ULba8d2TCE8me48ePCOG-23">
          <mxGeometry x="215" y="120" width="50" height="50" as="geometry" />
        </mxCell>
        <mxCell id="ULba8d2TCE8me48ePCOG-28" value="Frontend" style="swimlane;whiteSpace=wrap;html=1;" vertex="1" parent="1">
          <mxGeometry x="420" y="323" width="260" height="570" as="geometry" />
        </mxCell>
        <mxCell id="ULba8d2TCE8me48ePCOG-52" style="edgeStyle=orthogonalEdgeStyle;rounded=0;orthogonalLoop=1;jettySize=auto;html=1;exitX=0;exitY=0;exitDx=91;exitDy=80;exitPerimeter=0;" edge="1" parent="ULba8d2TCE8me48ePCOG-28" source="ULba8d2TCE8me48ePCOG-29" target="ULba8d2TCE8me48ePCOG-51">
          <mxGeometry relative="1" as="geometry" />
        </mxCell>
        <mxCell id="ULba8d2TCE8me48ePCOG-29" value="TimeSeriesCollection" style="shape=cube;whiteSpace=wrap;html=1;boundedLbl=1;backgroundOutline=1;darkOpacity=0.05;darkOpacity2=0.1;" vertex="1" parent="ULba8d2TCE8me48ePCOG-28">
          <mxGeometry x="40" y="240" width="162" height="80" as="geometry" />
        </mxCell>
        <mxCell id="ULba8d2TCE8me48ePCOG-50" style="edgeStyle=orthogonalEdgeStyle;rounded=0;orthogonalLoop=1;jettySize=auto;html=1;exitX=0;exitY=0;exitDx=110;exitDy=80;exitPerimeter=0;" edge="1" parent="ULba8d2TCE8me48ePCOG-28" source="ULba8d2TCE8me48ePCOG-48" target="ULba8d2TCE8me48ePCOG-29">
          <mxGeometry relative="1" as="geometry" />
        </mxCell>
        <mxCell id="ULba8d2TCE8me48ePCOG-48" value="ArrayList&amp;lt;CustomDataObject&amp;gt;" style="shape=cube;whiteSpace=wrap;html=1;boundedLbl=1;backgroundOutline=1;darkOpacity=0.05;darkOpacity2=0.1;" vertex="1" parent="ULba8d2TCE8me48ePCOG-28">
          <mxGeometry x="30" y="80" width="200" height="80" as="geometry" />
        </mxCell>
        <mxCell id="ULba8d2TCE8me48ePCOG-51" value="Wykres" style="whiteSpace=wrap;html=1;aspect=fixed;" vertex="1" parent="ULba8d2TCE8me48ePCOG-28">
          <mxGeometry x="40" y="390" width="140" height="140" as="geometry" />
        </mxCell>
        <mxCell id="ULba8d2TCE8me48ePCOG-43" style="edgeStyle=orthogonalEdgeStyle;rounded=0;orthogonalLoop=1;jettySize=auto;html=1;exitX=1;exitY=1;exitDx=0;exitDy=-15;exitPerimeter=0;entryX=-0.008;entryY=0.905;entryDx=0;entryDy=0;entryPerimeter=0;" edge="1" parent="1" source="ULba8d2TCE8me48ePCOG-32" target="ULba8d2TCE8me48ePCOG-38">
          <mxGeometry relative="1" as="geometry">
            <Array as="points">
              <mxPoint x="-240" y="713" />
              <mxPoint x="-240" y="690" />
            </Array>
          </mxGeometry>
        </mxCell>
        <mxCell id="ULba8d2TCE8me48ePCOG-45" value="ArrayList&amp;lt;CustomDataObject&amp;gt;" style="edgeLabel;html=1;align=center;verticalAlign=middle;resizable=0;points=[];" vertex="1" connectable="0" parent="ULba8d2TCE8me48ePCOG-43">
          <mxGeometry x="0.4941" y="-4" relative="1" as="geometry">
            <mxPoint x="15" y="16" as="offset" />
          </mxGeometry>
        </mxCell>
        <mxCell id="ULba8d2TCE8me48ePCOG-32" value="Baza ORM" style="shape=cylinder3;whiteSpace=wrap;html=1;boundedLbl=1;backgroundOutline=1;size=15;" vertex="1" parent="1">
          <mxGeometry x="-500" y="588" width="105" height="140" as="geometry" />
        </mxCell>
        <mxCell id="ULba8d2TCE8me48ePCOG-36" value="" style="endArrow=classic;html=1;rounded=0;exitX=0.42;exitY=1.013;exitDx=0;exitDy=0;exitPerimeter=0;entryX=0.5;entryY=0;entryDx=0;entryDy=0;entryPerimeter=0;" edge="1" parent="1" source="ULba8d2TCE8me48ePCOG-34" target="ULba8d2TCE8me48ePCOG-32">
          <mxGeometry width="50" height="50" relative="1" as="geometry">
            <mxPoint x="80" y="643" as="sourcePoint" />
            <mxPoint x="130" y="593" as="targetPoint" />
          </mxGeometry>
        </mxCell>
        <mxCell id="ULba8d2TCE8me48ePCOG-39" value="" style="endArrow=classic;html=1;rounded=0;entryX=1;entryY=0.25;entryDx=0;entryDy=0;" edge="1" parent="1" target="ULba8d2TCE8me48ePCOG-38">
          <mxGeometry width="50" height="50" relative="1" as="geometry">
            <mxPoint x="420" y="473" as="sourcePoint" />
            <mxPoint x="80" y="613" as="targetPoint" />
          </mxGeometry>
        </mxCell>
        <mxCell id="ULba8d2TCE8me48ePCOG-40" value="SOAP request" style="edgeLabel;html=1;align=center;verticalAlign=middle;resizable=0;points=[];" vertex="1" connectable="0" parent="ULba8d2TCE8me48ePCOG-39">
          <mxGeometry x="0.0041" y="2" relative="1" as="geometry">
            <mxPoint x="-40" y="-17" as="offset" />
          </mxGeometry>
        </mxCell>
        <mxCell id="ULba8d2TCE8me48ePCOG-42" style="edgeStyle=orthogonalEdgeStyle;rounded=0;orthogonalLoop=1;jettySize=auto;html=1;exitX=0;exitY=0.25;exitDx=0;exitDy=0;entryX=1;entryY=0;entryDx=0;entryDy=82.5;entryPerimeter=0;" edge="1" parent="1" source="ULba8d2TCE8me48ePCOG-38" target="ULba8d2TCE8me48ePCOG-32">
          <mxGeometry relative="1" as="geometry">
            <Array as="points">
              <mxPoint x="-310" y="638" />
              <mxPoint x="-310" y="671" />
            </Array>
          </mxGeometry>
        </mxCell>
        <mxCell id="ULba8d2TCE8me48ePCOG-44" value="request" style="edgeLabel;html=1;align=center;verticalAlign=middle;resizable=0;points=[];" vertex="1" connectable="0" parent="ULba8d2TCE8me48ePCOG-42">
          <mxGeometry x="-0.4978" y="1" relative="1" as="geometry">
            <mxPoint x="-14" y="-11" as="offset" />
          </mxGeometry>
        </mxCell>
        <mxCell id="ULba8d2TCE8me48ePCOG-46" value="" style="endArrow=classic;html=1;rounded=0;exitX=1.05;exitY=0.613;exitDx=0;exitDy=0;exitPerimeter=0;entryX=0;entryY=0;entryDx=20;entryDy=80;entryPerimeter=0;" edge="1" parent="1" source="ULba8d2TCE8me48ePCOG-38" target="ULba8d2TCE8me48ePCOG-48">
          <mxGeometry width="50" height="50" relative="1" as="geometry">
            <mxPoint x="80" y="643" as="sourcePoint" />
            <mxPoint x="420" y="503" as="targetPoint" />
          </mxGeometry>
        </mxCell>
        <mxCell id="ULba8d2TCE8me48ePCOG-49" value="SOAP response" style="edgeLabel;html=1;align=center;verticalAlign=middle;resizable=0;points=[];" vertex="1" connectable="0" parent="ULba8d2TCE8me48ePCOG-46">
          <mxGeometry x="-0.251" y="-4" relative="1" as="geometry">
            <mxPoint x="47" as="offset" />
          </mxGeometry>
        </mxCell>
        <mxCell id="ULba8d2TCE8me48ePCOG-56" value="Backend 2" style="swimlane;whiteSpace=wrap;html=1;" vertex="1" parent="1">
          <mxGeometry x="-570" y="250" width="325" height="295" as="geometry" />
        </mxCell>
        <mxCell id="ULba8d2TCE8me48ePCOG-34" value="ArrayList&amp;lt;CustomDataObject&amp;gt;" style="shape=cube;whiteSpace=wrap;html=1;boundedLbl=1;backgroundOutline=1;darkOpacity=0.05;darkOpacity2=0.1;" vertex="1" parent="ULba8d2TCE8me48ePCOG-56">
          <mxGeometry x="83" y="163" width="200" height="80" as="geometry" />
        </mxCell>
        <mxCell id="ULba8d2TCE8me48ePCOG-26" value="JSON dane" style="shape=cube;whiteSpace=wrap;html=1;boundedLbl=1;backgroundOutline=1;darkOpacity=0.05;darkOpacity2=0.1;" vertex="1" parent="ULba8d2TCE8me48ePCOG-56">
          <mxGeometry x="90" y="37.5" width="120" height="80" as="geometry" />
        </mxCell>
        <mxCell id="ULba8d2TCE8me48ePCOG-35" value="" style="endArrow=classic;html=1;rounded=0;exitX=0.693;exitY=0.974;exitDx=0;exitDy=0;exitPerimeter=0;entryX=0;entryY=0;entryDx=90;entryDy=0;entryPerimeter=0;" edge="1" parent="ULba8d2TCE8me48ePCOG-56" source="ULba8d2TCE8me48ePCOG-26" target="ULba8d2TCE8me48ePCOG-34">
          <mxGeometry width="50" height="50" relative="1" as="geometry">
            <mxPoint x="740" y="397.5" as="sourcePoint" />
            <mxPoint x="790" y="347.5" as="targetPoint" />
          </mxGeometry>
        </mxCell>
        <mxCell id="ULba8d2TCE8me48ePCOG-57" value="" style="endArrow=classic;html=1;rounded=0;" edge="1" parent="1">
          <mxGeometry width="50" height="50" relative="1" as="geometry">
            <mxPoint x="420" y="423" as="sourcePoint" />
            <mxPoint x="-240" y="363" as="targetPoint" />
          </mxGeometry>
        </mxCell>
        <mxCell id="ULba8d2TCE8me48ePCOG-58" value="Download request" style="edgeLabel;html=1;align=center;verticalAlign=middle;resizable=0;points=[];" vertex="1" connectable="0" parent="ULba8d2TCE8me48ePCOG-57">
          <mxGeometry x="-0.0087" y="-1" relative="1" as="geometry">
            <mxPoint x="-273" y="-49" as="offset" />
          </mxGeometry>
        </mxCell>
        <mxCell id="ULba8d2TCE8me48ePCOG-25" value="GUS API" style="ellipse;shape=cloud;whiteSpace=wrap;html=1;" vertex="1" parent="1">
          <mxGeometry x="-740" y="265.5" width="120" height="80" as="geometry" />
        </mxCell>
        <mxCell id="ULba8d2TCE8me48ePCOG-27" value="" style="endArrow=classic;html=1;rounded=0;exitX=0.96;exitY=0.7;exitDx=0;exitDy=0;exitPerimeter=0;entryX=0;entryY=0;entryDx=0;entryDy=30;entryPerimeter=0;" edge="1" parent="1" source="ULba8d2TCE8me48ePCOG-25" target="ULba8d2TCE8me48ePCOG-26">
          <mxGeometry width="50" height="50" relative="1" as="geometry">
            <mxPoint x="-320" y="443" as="sourcePoint" />
            <mxPoint y="613" as="targetPoint" />
          </mxGeometry>
        </mxCell>
      </root>
    </mxGraphModel>
  </diagram>
</mxfile>
